<svg width="25" height="25" viewBox="0 0 40 40" fill="none" xmlns="http://www.w3.org/2000/svg">
<path fill-rule="evenodd" clip-rule="evenodd" d="M26.2497 12.5C26.2497 14.1576 25.5912 15.7473 24.4191 16.9194C23.247 18.0915 21.6573 18.75 19.9997 18.75C18.3421 18.75 16.7524 18.0915 15.5803 16.9194C14.4081 15.7473 13.7497 14.1576 13.7497 12.5C13.7497 10.8424 14.4081 9.25268 15.5803 8.08058C16.7524 6.90848 18.3421 6.25 19.9997 6.25C21.6573 6.25 23.247 6.90848 24.4191 8.08058C25.5912 9.25268 26.2497 10.8424 26.2497 12.5ZM26.4022 20.1825C27.9804 18.8666 29.1149 17.0965 29.6517 15.1129C30.1882 13.1292 30.1004 11.0285 29.4007 9.09645C28.7009 7.1644 27.4229 5.49483 25.7407 4.31485C24.0583 3.1349 22.0533 2.50188 19.9984 2.50188C17.9435 2.50188 15.9385 3.1349 14.2562 4.31485C12.5739 5.49483 11.2959 7.1644 10.5961 9.09645C9.89637 11.0285 9.80877 13.1292 10.3453 15.1129C10.8818 17.0965 12.0164 18.8666 13.5947 20.1825C11.1336 21.346 9.03534 23.1569 7.52442 25.4213C6.01349 27.6858 5.14682 30.3183 5.01717 33.0375C5.00512 33.5275 5.18537 34.0028 5.51937 34.3613C5.85334 34.72 6.31449 34.9338 6.80409 34.9565C7.29367 34.9795 7.77274 34.8098 8.13872 34.4838C8.50469 34.1578 8.72849 33.7015 8.76217 33.2125C8.89847 30.3238 10.1419 27.5985 12.2344 25.6025C14.3269 23.6063 17.1078 22.4927 19.9997 22.4927C22.8916 22.4927 25.6724 23.6063 27.7649 25.6025C29.8574 27.5985 31.1009 30.3238 31.2372 33.2125C31.2434 33.4623 31.2992 33.708 31.4017 33.9358C31.5042 34.1635 31.6512 34.3685 31.8339 34.5385C32.0167 34.7088 32.2317 34.8408 32.4659 34.9268C32.7004 35.0128 32.9497 35.051 33.1992 35.0393C33.4487 35.0278 33.6932 34.9663 33.9187 34.8588C34.1439 34.7513 34.3457 34.6 34.5117 34.4135C34.6779 34.227 34.8049 34.0093 34.8857 33.773C34.9667 33.5368 34.9994 33.2865 34.9822 33.0375C34.8522 30.318 33.9852 27.6853 32.4739 25.4208C30.9624 23.1564 28.8637 21.3457 26.4022 20.1825Z" fill="#AC2333"/>
</svg>
